HIERARCHY
ROOT joint_Root
{
	OFFSET 0.0 0.0 0.0
	CHANNELS 6 Xposition Yposition Zposition Zrotation Xrotation Yrotation 
	JOINT Hips
	{
		OFFSET 4.5925 91.4895 -427.239
		CHANNELS 6 Xposition Yposition Zposition Zrotation Xrotation Yrotation 
		JOINT Spine
		{
			OFFSET 15.7357 0.0 0.0
			CHANNELS 6 Xposition Yposition Zposition Zrotation Xrotation Yrotation 
			JOINT Chest
			{
				OFFSET 8.98455 -0.406207 0.0
				CHANNELS 6 Xposition Yposition Zposition Zrotation Xrotation Yrotation 
				JOINT Neck
				{
					OFFSET 16.3773 0.0 0.0
					CHANNELS 6 Xposition Yposition Zposition Zrotation Xrotation Yrotation 
					JOINT Head
					{
						OFFSET 6.45672 0.0 0.0
						CHANNELS 6 Xposition Yposition Zposition Zrotation Xrotation Yrotation 
						End Site
						{
							OFFSET 0.0 0.0 0.0
						}
					}
				}
				JOINT Shoulder_L
				{
					OFFSET 12.9942 -0.242716 4.98039
					CHANNELS 6 Xposition Yposition Zposition Zrotation Xrotation Yrotation 
					JOINT UpperArm_L
					{
						OFFSET 5.34809 0.0 0.0
						CHANNELS 6 Xposition Yposition Zposition Zrotation Xrotation Yrotation 
						JOINT LowerArm_L
						{
							OFFSET 24.3286 1.87007e-05 0.0
							CHANNELS 6 Xposition Yposition Zposition Zrotation Xrotation Yrotation 
							JOINT Hand_L
							{
								OFFSET 22.2916 0.0 0.0
								CHANNELS 6 Xposition Yposition Zposition Zrotation Xrotation Yrotation 
								End Site
								{
									OFFSET 0.0 0.0 0.0
								}
							}
						}
					}
				}
				JOINT Shoulder_R
				{
					OFFSET 12.9945 -0.242716 -4.98039
					CHANNELS 6 Xposition Yposition Zposition Zrotation Xrotation Yrotation 
					JOINT UpperArm_R
					{
						OFFSET -5.34813 0.0 0.0
						CHANNELS 6 Xposition Yposition Zposition Zrotation Xrotation Yrotation 
						JOINT LowerArm_R
						{
							OFFSET -24.3289 0.000322201 0.0
							CHANNELS 6 Xposition Yposition Zposition Zrotation Xrotation Yrotation 
							JOINT Hand_R
							{
								OFFSET -22.2915 -0.000108084 0.0
								CHANNELS 6 Xposition Yposition Zposition Zrotation Xrotation Yrotation 
								End Site
								{
									OFFSET 0.0 0.0 0.0
								}
							}
						}
					}
				}
			}
		}
		JOINT UpperLeg_L
		{
			OFFSET -2.19248 -6.46944 0.0
			CHANNELS 6 Xposition Yposition Zposition Zrotation Xrotation Yrotation 
			JOINT LowerLeg_L
			{
				OFFSET 39.0811 0.0 -1.23785e-05
				CHANNELS 6 Xposition Yposition Zposition Zrotation Xrotation Yrotation 
				JOINT Foot_L
				{
					OFFSET 40.9854 0.0 -1.26872e-05
					CHANNELS 6 Xposition Yposition Zposition Zrotation Xrotation Yrotation 
					JOINT Toes_L
					{
						OFFSET 11.7543 0.0 0.0
						CHANNELS 6 Xposition Yposition Zposition Zrotation Xrotation Yrotation 
						End Site
						{
							OFFSET 0.0 0.0 0.0
						}
					}
				}
			}
		}
		JOINT UpperLeg_R
		{
			OFFSET -2.19251 6.46944 0.0
			CHANNELS 6 Xposition Yposition Zposition Zrotation Xrotation Yrotation 
			JOINT LowerLeg_R
			{
				OFFSET -39.0811 -0.00228153 -0.0401928
				CHANNELS 6 Xposition Yposition Zposition Zrotation Xrotation Yrotation 
				JOINT Foot_R
				{
					OFFSET -40.9854 0.0 0.0
					CHANNELS 6 Xposition Yposition Zposition Zrotation Xrotation Yrotation 
					JOINT Toes_R
					{
						OFFSET -11.7543 0.0 0.0
						CHANNELS 6 Xposition Yposition Zposition Zrotation Xrotation Yrotation 
						End Site
						{
							OFFSET 0.0 0.0 0.0
						}
					}
				}
			}
		}
	}
}
MOTION
Frames:	6
Frame Time:	0.0333333
0.000000 0.000000 0.000000 0.000000 0.000000 -0.000000 6.989350 86.033000 -35.835200 90.238600 7.306470 -9.015270 15.735700 0.000005 -0.000001 58.099200 81.670900 -55.556000 8.984550 -0.406207 -0.000000 6.637660 -8.801340 5.600150 16.377300 -0.000001 -0.000001 -0.961940 -1.697180 -1.029960 6.456720 -0.000001 -0.000000 -6.267310 1.752100 -0.342973 12.994200 -0.242716 4.980390 -91.033600 3.250140 -72.348200 5.348090 -0.000007 -0.000001 -58.582300 29.148700 -10.292600 24.328600 0.000019 0.000005 17.246200 16.832800 -46.995400 22.291600 -0.000001 0.000005 -0.788842 5.470160 -5.376580 12.994500 -0.242716 -4.980390 86.250200 11.973100 -72.466400 -5.348130 -0.000001 -0.000004 -53.196600 15.473200 4.254290 -24.328900 0.000322 -0.000009 -3.168200 -2.283040 -54.248000 -22.291500 -0.000108 -0.000004 9.623350 5.581210 -10.270700 -2.192480 -6.469440 -0.000000 -172.535000 -6.243540 -5.596980 39.081100 -0.000007 -0.000012 0.711006 0.218348 107.070000 40.985400 -0.000006 -0.000013 -4.130290 -7.244460 -13.538200 11.754300 -0.000000 0.000003 -0.002621 -0.036243 -18.050600 -2.192510 6.469440 -0.000001 -168.876000 14.591100 136.655000 -39.081100 -0.002282 -0.040193 0.034280 -0.029742 46.204500 -40.985400 0.000008 0.000006 10.285200 2.295190 -64.832400 -11.754300 -0.000006 -0.000006 -0.013614 -0.128908 -21.830500
0.000000 0.000000 0.000000 0.000000 0.000000 -0.000000 6.849680 82.923300 -25.536300 87.641700 1.526910 -6.835870 15.735700 0.000005 -0.000001 72.901700 81.319500 -69.828700 8.984550 -0.406207 -0.000000 8.996990 -5.044900 6.541230 16.377300 -0.000001 -0.000001 -2.626470 -0.575832 -0.669190 6.456720 -0.000001 -0.000000 -6.883400 2.771660 -1.654110 12.994200 -0.242716 4.980390 -91.210500 3.731650 -72.013100 5.348090 -0.000007 -0.000001 -61.063200 27.561500 -3.197380 24.328600 0.000019 0.000005 15.005100 24.184700 -33.200100 22.291600 -0.000001 0.000005 -1.590140 5.468910 -5.329610 12.994500 -0.242716 -4.980390 86.529000 12.447200 -74.283400 -5.348130 -0.000001 -0.000004 -50.288400 10.989200 -11.730100 -24.328900 0.000322 -0.000009 -2.547860 -1.563290 -58.479700 -22.291500 -0.000108 -0.000004 12.017300 5.584640 -10.462900 -2.192480 -6.469440 -0.000000 -172.813000 -9.752380 -18.715100 39.081100 -0.000007 -0.000012 0.413399 0.292582 125.286000 40.985400 -0.000006 -0.000013 -3.051460 -3.054460 -6.092640 11.754300 -0.000000 0.000003 -0.003290 -0.043852 -18.360300 -2.192510 6.469440 -0.000001 -168.911000 3.797440 141.365000 -39.081100 -0.002282 -0.040193 -0.447913 0.278458 58.315400 -40.985400 0.000008 0.000006 10.887600 -5.376000 -77.078300 -11.754300 -0.000006 -0.000006 -0.005710 -0.068180 -19.347700
0.000000 0.000000 0.000000 0.000000 0.000000 -0.000000 6.721910 81.268800 -15.088900 86.862500 -2.677630 -6.341000 15.735700 0.000005 -0.000001 83.804400 81.362900 -80.989800 8.984550 -0.406207 -0.000000 9.461710 -1.811900 5.775130 16.377300 -0.000001 -0.000001 -2.339150 -0.269393 0.205935 6.456720 -0.000001 -0.000000 -6.469320 1.803470 -1.575930 12.994200 -0.242716 4.980390 -90.765800 2.238610 -71.109200 5.348090 -0.000007 -0.000001 -63.235500 23.218400 3.461600 24.328600 0.000019 0.000005 16.027600 34.347000 -26.984700 22.291600 -0.000001 0.000005 -7.600850 5.472220 -5.460960 12.994500 -0.242716 -4.980390 87.665200 10.612200 -77.517800 -5.348130 -0.000001 -0.000004 -51.739900 6.129200 -24.078300 -24.328900 0.000322 -0.000009 -1.896620 -0.810510 -66.863100 -22.291500 -0.000108 -0.000004 9.656890 5.566610 -9.511890 -2.192480 -6.469440 -0.000000 -174.969000 -9.477970 -36.713700 39.081100 -0.000007 -0.000012 -0.214305 -0.214014 134.963000 40.985400 -0.000006 -0.000013 -3.993700 2.100040 0.441001 11.754300 -0.000000 0.000003 -0.003230 -0.043186 -18.333200 -2.192510 6.469440 -0.000001 -168.186000 5.601710 149.523000 -39.081100 -0.002282 -0.040193 0.217241 -0.117087 61.321000 -40.985400 0.000008 0.000006 16.893400 -4.734110 -87.824900 -11.754300 -0.000006 -0.000006 -0.006026 -0.071071 -19.465600
0.000000 0.000000 0.000000 0.000000 0.000000 -0.000000 7.282710 81.819900 -3.157040 89.468200 -5.938910 -6.949610 15.735700 0.000005 -0.000001 96.363400 81.861500 -94.804400 8.984550 -0.406207 -0.000000 8.390990 1.804160 2.982850 16.377300 -0.000001 -0.000001 -1.722590 -1.128180 1.111110 6.456720 -0.000001 -0.000000 -5.360070 -0.650990 -1.279410 12.994200 -0.242716 4.980390 -90.721400 1.949220 -69.684000 5.348090 -0.000007 -0.000001 -61.647200 23.258300 9.226450 24.328600 0.000019 0.000005 19.734700 35.525900 -31.692000 22.291600 -0.000001 0.000005 -9.700260 5.487790 -6.047610 12.994500 -0.242716 -4.980390 88.317400 8.276110 -78.466100 -5.348130 -0.000001 -0.000004 -48.903500 4.584140 -33.258500 -24.328900 0.000322 -0.000009 -0.676114 -0.175333 -75.457000 -22.291500 -0.000108 -0.000004 10.161500 5.539350 -8.217410 -2.192480 -6.469440 -0.000000 179.133000 -8.272860 -48.494300 39.081100 -0.000007 -0.000012 -0.545957 -0.511690 133.144000 40.985400 -0.000006 -0.000013 -0.226734 2.348660 -10.055000 11.754300 -0.000000 0.000003 -0.003240 -0.043300 -18.337800 -2.192510 6.469440 -0.000001 -173.929000 6.432100 160.741000 -39.081100 -0.002282 -0.040193 0.293293 -0.194345 56.178600 -40.985400 0.000008 0.000006 16.648200 -1.378840 -91.944900 -11.754300 -0.000006 -0.000006 -0.011684 -0.115821 -21.294200
0.000000 0.000000 0.000000 0.000000 0.000000 -0.000000 8.122620 84.647700 9.761980 93.126000 -9.224010 -8.778090 15.735700 0.000005 -0.000001 110.014000 82.678000 -110.379000 8.984550 -0.406207 -0.000000 6.027450 5.004080 -0.993356 16.377300 -0.000001 -0.000001 -0.604215 -1.490000 1.697410 6.456720 -0.000001 -0.000000 -4.500050 -2.649490 -0.067861 12.994200 -0.242716 4.980390 -90.389800 0.941450 -67.498000 5.348090 -0.000007 -0.000001 -60.219100 24.112700 14.183200 24.328600 0.000019 0.000005 15.760500 24.750300 -33.988600 22.291600 -0.000001 0.000005 -6.582140 5.502540 -6.635010 12.994500 -0.242716 -4.980390 88.854400 5.790990 -78.791200 -5.348130 -0.000001 -0.000004 -46.472200 5.599900 -37.049800 -24.328900 0.000322 -0.000009 -1.839690 -0.238937 -82.588700 -22.291500 -0.000108 -0.000004 10.141700 5.510670 -6.961990 -2.192480 -6.469440 -0.000000 172.589000 -6.482750 -54.039300 39.081100 -0.000007 -0.000012 -0.436111 -0.264765 121.263000 40.985400 -0.000006 -0.000013 5.723160 -3.863860 -29.348500 11.754300 -0.000000 0.000003 -0.001612 -0.023749 -17.542500 -2.192510 6.469440 -0.000001 177.844000 8.682140 171.472000 -39.081100 -0.002282 -0.040193 0.213644 -0.206936 45.473200 -40.985400 0.000008 0.000006 17.281500 6.785480 -82.613400 -11.754300 -0.000006 -0.000006 -0.077655 -0.385332 -32.560800
0.000000 0.000000 0.000000 0.000000 0.000000 -0.000000 8.563500 88.432200 22.524200 94.849400 -11.844300 -11.503600 15.735700 0.000005 -0.000001 124.359000 83.356100 -126.307000 8.984550 -0.406207 -0.000000 3.360240 7.565790 -4.118240 16.377300 -0.000001 -0.000001 0.170182 -1.491830 2.210890 6.456720 -0.000001 -0.000000 -3.806570 -4.093750 1.241700 12.994200 -0.242716 4.980390 -89.470300 -1.180460 -65.836200 5.348090 -0.000007 -0.000001 -59.875700 20.141800 17.854300 24.328600 0.000019 0.000005 15.962000 21.166100 -38.383200 22.291600 -0.000001 0.000005 -7.315270 5.495900 -6.368780 12.994500 -0.242716 -4.980390 89.188300 4.155630 -78.937300 -5.348130 -0.000001 -0.000004 -47.106900 8.344740 -37.987700 -24.328900 0.000322 -0.000009 -0.331560 -0.020708 -86.380600 -22.291500 -0.000108 -0.000004 7.404970 5.478330 -5.682520 -2.192480 -6.469440 -0.000000 170.126000 -4.725890 -57.377300 39.081100 -0.000007 -0.000012 -0.179281 -0.039838 102.531000 40.985400 -0.000006 -0.000013 7.906410 -12.754300 -42.029500 11.754300 -0.000000 0.000003 -0.003035 -0.041000 -18.244200 -2.192510 6.469440 -0.000001 172.103000 11.791700 177.775000 -39.081100 -0.002282 -0.040193 0.154240 -0.209726 35.744700 -40.985400 0.000008 0.000006 15.668300 16.513800 -60.983000 -11.754300 -0.000006 -0.000006 -0.289196 -0.776035 -50.649000
